<svg width="34" height="34" viewBox="0 0 34 34" fill="none" xmlns="http://www.w3.org/2000/svg">
<rect y="0.372314" width="33.4892" height="33.4892" rx="16.7446" fill="#F9FAFB"/>
<g clip-path="url(#clip0_494_134)">
<path d="M14.477 10.2646C14.477 9.76893 14.6739 9.29359 15.0243 8.94312C15.3748 8.59264 15.8501 8.39575 16.3458 8.39575C16.8414 8.39575 17.3168 8.59264 17.6672 8.94312C18.0177 9.29359 18.2146 9.76893 18.2146 10.2646C18.2146 10.7602 18.0177 11.2355 17.6672 11.586C17.3168 11.9365 16.8414 12.1334 16.3458 12.1334C15.8501 12.1334 15.3748 11.9365 15.0243 11.586C14.6739 11.2355 14.477 10.7602 14.477 10.2646ZM12.6082 15.871C12.6082 15.1819 13.1649 14.6251 13.854 14.6251H16.3458C17.0349 14.6251 17.5917 15.1819 17.5917 15.871V24.5921H18.8375C19.5267 24.5921 20.0834 25.1489 20.0834 25.838C20.0834 26.5271 19.5267 27.0839 18.8375 27.0839H13.854C13.1649 27.0839 12.6082 26.5271 12.6082 25.838C12.6082 25.1489 13.1649 24.5921 13.854 24.5921H15.0999V17.1169H13.854C13.1649 17.1169 12.6082 16.5601 12.6082 15.871Z" fill="#EFAA15"/>
</g>
<defs>
<clipPath id="clip0_494_134">
<rect width="19.934" height="19.934" fill="white" transform="translate(6.37891 7.1499)"/>
</clipPath>
</defs>
</svg>
