<svg width="26" height="26" viewBox="0 0 26 26" fill="none" xmlns="http://www.w3.org/2000/svg">
<circle cx="13" cy="13" r="13" fill="#61BC79" fill-opacity="0.4"/>
<path d="M7.69492 11.1227C7.96563 10.3563 8.40508 9.63557 9.02383 9.02034C11.2211 6.82307 14.7824 6.82307 16.9797 9.02034L17.5809 9.62502H16.375C15.7527 9.62502 15.25 10.1278 15.25 10.75C15.25 11.3723 15.7527 11.875 16.375 11.875H20.2949H20.309C20.9312 11.875 21.434 11.3723 21.434 10.75V6.81252C21.434 6.19026 20.9312 5.68752 20.309 5.68752C19.6867 5.68752 19.184 6.19026 19.184 6.81252V8.05002L18.5687 7.43127C15.4926 4.3551 10.5074 4.3551 7.43125 7.43127C6.57344 8.28909 5.95469 9.29807 5.575 10.3774C5.36758 10.9645 5.67695 11.6043 6.26055 11.8117C6.84414 12.0192 7.4875 11.7098 7.69492 11.1262V11.1227ZM5.37109 14.1707C5.19531 14.2235 5.02656 14.3184 4.88945 14.459C4.74883 14.5996 4.65391 14.7684 4.60469 14.9512C4.59414 14.9934 4.58359 15.0391 4.57656 15.0848C4.56602 15.1446 4.5625 15.2043 4.5625 15.2641V19.1875C4.5625 19.8098 5.06523 20.3125 5.6875 20.3125C6.30977 20.3125 6.8125 19.8098 6.8125 19.1875V17.9535L7.43125 18.5688C10.5074 21.6414 15.4926 21.6414 18.5652 18.5688C19.423 17.711 20.0453 16.702 20.425 15.6262C20.6324 15.0391 20.323 14.3992 19.7395 14.1918C19.1559 13.9844 18.5125 14.2938 18.3051 14.8774C18.0344 15.6438 17.5949 16.3645 16.9762 16.9797C14.7789 19.177 11.2176 19.177 9.02031 16.9797L9.0168 16.9762L8.41562 16.375H9.625C10.2473 16.375 10.75 15.8723 10.75 15.25C10.75 14.6278 10.2473 14.125 9.625 14.125H5.70156C5.64531 14.125 5.58906 14.1285 5.53281 14.1356C5.47656 14.1426 5.42383 14.1531 5.37109 14.1707Z" fill="#61BC79"/>
</svg>
