<svg width="22" height="22" viewBox="0 0 22 22" fill="none" xmlns="http://www.w3.org/2000/svg">
<g clip-path="url(#clip0_632_888)">
<circle cx="11.1779" cy="11.1042" r="11.0483" fill="#E9EFF2"/>
<path d="M11.0765 21.6457C13.9261 21.6457 16.6589 20.5138 18.6739 18.4988C20.6888 16.4839 21.8208 13.751 21.8208 10.9015C21.8208 8.05193 20.6888 5.31909 18.6739 3.30415C16.6589 1.28921 13.9261 0.157227 11.0765 0.157227C8.22698 0.157227 5.49414 1.28921 3.4792 3.30415C1.46426 5.31909 0.332275 8.05193 0.332275 10.9015C0.332275 13.751 1.46426 16.4839 3.4792 18.4988C5.49414 20.5138 8.22698 21.6457 11.0765 21.6457ZM7.21951 13.8184C7.97077 14.6872 9.25505 15.6021 11.0765 15.6021C12.898 15.6021 14.1823 14.6872 14.9336 13.8184C15.177 13.5372 15.6009 13.5078 15.8821 13.7512C16.1633 13.9947 16.1926 14.4186 15.9492 14.6997C15.0133 15.7742 13.3891 16.9451 11.0765 16.9451C8.764 16.9451 7.13977 15.7742 6.20385 14.6997C5.96042 14.4186 5.9898 13.9947 6.271 13.7512C6.55219 13.5078 6.97609 13.5372 7.21951 13.8184ZM6.39271 8.88694C6.39271 8.53074 6.53421 8.18914 6.78607 7.93727C7.03794 7.6854 7.37955 7.54391 7.73574 7.54391C8.09194 7.54391 8.43354 7.6854 8.68541 7.93727C8.93728 8.18914 9.07877 8.53074 9.07877 8.88694C9.07877 9.24313 8.93728 9.58474 8.68541 9.83661C8.43354 10.0885 8.09194 10.23 7.73574 10.23C7.37955 10.23 7.03794 10.0885 6.78607 9.83661C6.53421 9.58474 6.39271 9.24313 6.39271 8.88694ZM12.9568 9.96136C12.7343 10.2593 12.3146 10.3181 12.0167 10.0957C11.7187 9.87323 11.6599 9.45353 11.8824 9.15554C13.1582 7.45577 15.71 7.45577 16.9859 9.15554C17.2083 9.45353 17.1496 9.87323 16.8516 10.0957C16.5536 10.3181 16.1339 10.2593 15.9115 9.96136C15.1728 8.97507 13.6954 8.97507 12.9568 9.96136Z" fill="#4EA9EF"/>
</g>
<defs>
<clipPath id="clip0_632_888">
<rect width="21.4885" height="21.4885" fill="white" transform="translate(0.332275 0.157227)"/>
</clipPath>
</defs>
</svg>
